<svg width="32" height="32" viewBox="0 0 32 32" fill="none" xmlns="http://www.w3.org/2000/svg">
<path d="M15.8934 10.0267L16.6801 11.8667C16.7334 12.0267 16.8801 12.12 17.0268 12.1334L19.0268 12.32C19.4534 12.36 19.6134 12.88 19.3068 13.16L17.8001 14.48C17.6801 14.5867 17.6268 14.7467 17.6668 14.8934L18.1068 16.8534C18.2001 17.2667 17.7601 17.5867 17.3868 17.3734L15.6668 16.3467C15.5334 16.2667 15.3601 16.2667 15.2268 16.3467L13.5068 17.3734C13.1468 17.5867 12.6934 17.2667 12.7868 16.8534L13.2268 14.8934C13.2668 14.7467 13.2134 14.5867 13.0934 14.48L11.5868 13.16C11.2668 12.88 11.4401 12.36 11.8668 12.32L13.8668 12.1334C14.0268 12.12 14.1601 12.0267 14.2268 11.88L15.0134 10.04C15.1734 9.64003 15.7201 9.64003 15.8934 10.0267Z" stroke="#F0C932" stroke-width="1.33333" stroke-miterlimit="10" stroke-linecap="round" stroke-linejoin="round"/>
<path d="M24.5165 13.9262C24.551 8.91879 20.5196 4.83157 15.5123 4.7971C10.5049 4.76264 6.41766 8.79399 6.3832 13.8014C6.34874 18.8088 10.3801 22.896 15.3875 22.9304C20.3948 22.9649 24.4821 18.9336 24.5165 13.9262Z" stroke="#F0C932" stroke-width="1.33333" stroke-miterlimit="10" stroke-linecap="round" stroke-linejoin="round"/>
<path d="M14.2134 22.84L11.96 28.5067L9.10672 25.24L4.80005 25.64L7.65338 18.4933" stroke="#F0C932" stroke-width="1.33333" stroke-miterlimit="10" stroke-linecap="round" stroke-linejoin="round"/>
<path d="M16.6667 22.84L18.9334 28.5067L21.7734 25.24L26.0934 25.64L23.2267 18.4933" stroke="#F0C932" stroke-width="1.33333" stroke-miterlimit="10" stroke-linecap="round" stroke-linejoin="round"/>
</svg>
